# xmcd
#
# Track frame offsets: 
#        150
#        10160
#        23732
#        36908
#        48614
#        64097
#        75330
#        91180
#        103865
#        123713
#        137201
#        148305
#        162624
#        175919
#        191672
#        204721
#        217194
#        233798
#        245373
#        256265
#        268952
#        282160
#        292559
#        308976
#        326673
#
# Disc length: 4598 seconds
#
# Revision: 0
# Processed by: cddbd v1.5.2PL0 Copyright (c) Steve Scherf et al.
# Submitted via: ExactAudioCopy v0.95a5
#
DISCID=7d11f419
DTITLE=Hooker, John Lee - Box Set - CD2
DYEAR=2006
DGENRE=Blues
TTITLE0=Dimples
TTITLE1=Every Night
TTITLE2=I'm So excited
TTITLE3=I Love You Honey
TTITLE4=Tupelo Blues
TTITLE5=I Need Some Money
TTITLE6=Democrat man
TTITLE7=No More Doggin'
TTITLE8=Gonna Use My Rod
TTITLE9=Whiskey And Wimmen
TTITLE10=No Shoes
TTITLE11=We're All God's Chillum
TTITLE12=I'm Goin' Upstairs
TTITLE13=Teachin' The Blues
TTITLE14=You Lost A Good Man
TTITLE15=Don't Turn Me From Your Door
TTITLE16=When My First Wife Quit Me
TTITLE17=Boom Boom
TTITLE18=She's Mine
TTITLE19=Frisco Blues
TTITLE20=Birmingham Blues
TTITLE21=Big Legs Tight Shirt
TTITLE22=It Serves Me Right To Suffer
TTITLE23=I'm Loosing You
TTITLE24=I Cover The Waterfront
EXTD=
EXTT0=
EXTT1=
EXTT2=
EXTT3=
EXTT4=
EXTT5=
EXTT6=
EXTT7=
EXTT8=
EXTT9=
EXTT10=
EXTT11=
EXTT12=
EXTT13=
EXTT14=
EXTT15=
EXTT16=
EXTT17=
EXTT18=
EXTT19=
EXTT20=
EXTT21=
EXTT22=
EXTT23=
EXTT24=
PLAYORDER=
